<?xml version="1.0" encoding="UTF-8" standalone="no"?>
<!-- Generator: Adobe Illustrator 16.0.0, SVG Export Plug-In . SVG Version: 6.00 Build 0)  -->

<svg
   xmlns:dc="http://purl.org/dc/elements/1.1/"
   xmlns:cc="http://creativecommons.org/ns#"
   xmlns:rdf="http://www.w3.org/1999/02/22-rdf-syntax-ns#"
   xmlns:svg="http://www.w3.org/2000/svg"
   xmlns="http://www.w3.org/2000/svg"
   xmlns:xlink="http://www.w3.org/1999/xlink"
   version="1.1"
   id="svg2"
   class="keys-svg"
   viewBox="-95 -140 300 1000">
  <metadata
     id="metadata46">
    <rdf:RDF>
      <cc:Work
         rdf:about="">
        <dc:format>image/svg+xml</dc:format>
        <dc:type
           rdf:resource="http://purl.org/dc/dcmitype/StillImage" />
        <dc:title></dc:title>
      </cc:Work>
    </rdf:RDF>
  </metadata>
  <defs
     id="defs44" />
  <g
     stroke="#bef04e" stroke-opacity="1" opacity="1" stroke-width="4" stroke-miterlimit="4" stroke-dasharray="none"
     id="g4">
    <g
       fill="#9ace28" fill-opacity="1" stroke="#bef04e" stroke-opacity="1" stroke-width="4" stroke-miterlimit="4" stroke-dasharray="none" id="g6">
      <path
        fill="#9ace28" fill-opacity="1" stroke="#bef04e" stroke-opacity="1" stroke-width="4" stroke-miterlimitt="4" stroke-dasharray="none" id="path8"
         d="M77.102,312.107l81.277-81.958c14.9-15.024,27.021-44.634,26.93-65.793l-1.052-252.853    c-0.089-21.164-17.477-38.407-38.638-38.315l-195.107,0.817c-21.16,0.085-38.404,17.473-38.313,38.634l1.053,252.852    c0.088,21.163,12.453,50.666,27.48,65.569l81.956,81.273C37.716,327.237,62.202,327.133,77.102,312.107L77.102,312.107z     M22.215,185.675c14.933-15.058,39.245-15.159,54.302-0.227c15.062,14.936,15.163,39.248,0.23,54.306    c-14.934,15.059-39.246,15.16-54.307,0.224C7.383,225.045,7.282,200.733,22.215,185.675L22.215,185.675z M22.215,185.675" />
    </g>
  </g>
  <g
    fill="#ffe97a" fill-opacity="1" id="g10">
    <defs
       id="defs12">
      <rect
         height="471.75"
         width="275.187"
         y="240.968"
         x="-87.042"
         id="SVGID_1_" />
    </defs>
    <clipPath
       id="SVGID_2_">
      <use
        id="use16"
        style="overflow:visible;"
        xlink:href="#SVGID_1_" />
    </clipPath>
    <path
       clip-path="url(#SVGID_2_)"
       id="path18"
       d="M47.301,470.162c-12.592,0-22.855-10.263-22.855-22.855v-11.185   c-8.342-6.46-14.162-14.354-16.621-22.133c-0.044-0.098-0.071-0.218-0.109-0.322c-0.465-0.886-0.736-1.883-0.753-3.025   c-0.001-0.1,0-0.171,0.002-0.228c-0.038-0.222-0.066-0.445-0.091-0.668c-0.103-0.542-0.199-1.097-0.232-1.627   c-0.059-0.948,0.062-1.892,0.22-2.827c-0.005-0.51-0.006-1.024-0.011-1.547c-0.024-2.561,0.805-5.969,2.529-8.135   c3.094-5.161,8.415-8.71,15.066-10.472v-27.359c0-2.125,0.307-4.172,0.87-6.117c-13.692,5.016-25.799,14.358-34.194,27.182   c-0.012-0.016-0.023-0.033-0.034-0.049c-0.215,0.291-0.44,0.565-0.675,0.824c-1.238,2.506-2.558,4.979-3.651,7.553   c-0.831,1.955-1.672,3.852-2.723,5.622c0.006,0.008,0.012,0.016,0.019,0.022c-9.904,26.721-2.354,56.385,17.967,75.171   L-85.583,647.35c-3.481,7.09-0.538,15.639,6.552,19.119l10.264,5.017c7.115,3.455,15.663,0.512,19.118-6.577l87.634-179.364   c12.132,1.997,24.417,0.64,35.627-3.583v-11.799H47.301z"
       style="clip-path:url(#SVGID_2_);" fill="#ffe97a" fill-opacity="1"/>
    <path
       clip-path="url(#SVGID_2_)"
       id="path20"
       d="M-44.735,665.727L2.333,688.71l7.422-15.178l-25.134-12.285   c-3.378-1.637-4.76-5.707-3.123-9.085c1.638-3.353,5.708-4.761,9.087-3.123l25.132,12.285l11.288-23.111L1.873,625.928   c-3.379-1.638-4.786-5.707-3.124-9.06c1.638-3.379,5.708-4.762,9.061-3.124l25.158,12.286l13.694-28.025l-47.094-23.009   L-44.735,665.727z"
       style="clip-path:url(#SVGID_2_);" fill="#ffe97a" fill-opacity="1"/>
  </g>
  <g
    fill="#ffe97a" fill-opacity="1"
    id="g22">
    <defs
       id="defs24">
      <rect
         height="471.749"
         width="275.188"
         y="246.47"
         x="-90.146"
         id="SVGID_3_" />
    </defs>
    <clipPath
       id="SVGID_4_">
      <use
         id="use28"
         style="overflow:visible;"
         xlink:href="#SVGID_3_" />
    </clipPath>
    <path
       clip-path="url(#SVGID_4_)"
       id="path30"
       d="M166.127,347.182h-37.879c0.002-0.018,0.003-0.035,0.005-0.052   c-0.089,0-0.181,0-0.271,0.001c-4.814,0.266-9.619,0.49-14.433,0.076H44.224c-7.909,0-14.308,6.399-14.308,14.281v50.076   c0.002,0.049,0.01,0.097,0.01,0.146c0,0.236-0.022,0.477-0.039,0.716c0.145,2.234,0.048,4.535-0.083,6.782   c0.034,0.685,0,1.385-0.043,2.079c0.021,0.487,0.026,0.981,0.045,1.488c0.027,0.752,0.077,1.537,0.099,2.316   c0.025,0.264,0.032,0.52,0.012,0.764c0,0.146-0.011,0.289-0.017,0.434c0.006,0.001,0.012,0.003,0.017,0.004v24.723   c0,7.909,6.398,14.282,14.308,14.282h34.884v217.422l25.235,32.862h1.664l25.235-32.862v-26.106l-14.767-14.768   c-5.58-5.58-5.58-14.614,0-20.193l14.767-14.769v-12.184l-12.387-12.386c-5.579-5.58-5.579-14.615,0-20.195l12.387-12.386v-6.451   l-14.767-14.768c-5.58-5.58-5.58-14.639,0-20.219l14.767-14.768v-28.23h34.885c7.909,0,14.309-6.398,14.309-14.282v-89.528   C180.436,353.606,174.036,347.207,166.127,347.182z M93.748,668.183h-6.681V468.165h6.681V668.183z M152.333,419.101   c0,7.909-6.398,14.308-14.309,14.308H70.892c-5.375,0-9.981-2.994-12.413-7.345c0.004-0.001,0.006-0.001,0.008-0.002   c-0.041-0.065-0.068-0.142-0.09-0.218c-0.041-0.099-0.065-0.202-0.081-0.309c-0.054-0.126-0.136-0.243-0.159-0.383   c-0.039-0.228-0.072-0.455-0.094-0.683c-0.064-0.26-0.121-0.525-0.172-0.797c-0.157-0.867-0.363-1.771-0.447-2.664   c-0.129-0.689-0.137-1.39-0.176-2.091c-0.385-2.314-0.717-4.633-0.758-6.987c-0.004-0.172,0.027-0.321,0.076-0.456v-15.229   c0-7.882,6.423-14.281,14.306-14.281h29.895c-0.006,0.008-0.012,0.016-0.018,0.024c3.943-0.014,7.937-0.112,11.903,0.006   c0.197-0.026,0.392-0.061,0.594-0.059c0.94,0.007,1.88,0.059,2.818,0.081c0.124-0.02,0.246-0.037,0.374-0.054   c0.345-0.045,0.664-0.045,1.008,0c0.003,0,0.006,0.001,0.008,0.001h20.551c7.91,0,14.309,6.399,14.309,14.281V419.101z"
       style="clip-path:url(#SVGID_4_);" fill="#ffe97a" fill-opacity="1" />
    <path
       clip-path="url(#SVGID_4_)"
       id="path32"
       d="M152.333,396.245"
       style="clip-path:url(#SVGID_4_);" fill="#ffe97a" fill-opacity="1" />
  </g>
  <g
     id="g34">
    <path
       fill="#6a6a6a" fill-opacity="1"
       id="path36"
       d="M-31.432,320.902c0-17.636,5.641-33.944,15.193-47.259c-0.015-0.012-0.03-0.019-0.045-0.031   c-0.726-0.621-1.539-1.427-2.165-2.144c-0.649-0.742-1.43-1.294-2.11-2.005c-1.274-1.33-2.682-2.598-3.943-3.95   c0,0,0-0.001-0.001-0.001c-0.246-0.175-0.451-0.376-0.631-0.599c-11.688,15.608-18.612,34.989-18.612,55.988   c0,27.303,11.726,51.833,30.395,68.911c0.248-0.613,0.512-1.219,0.753-1.836c0.111-0.283,0.194-0.602,0.338-0.87   c0.142-0.266,0.362-0.501,0.418-0.803c0.009-0.049,0.031-0.083,0.049-0.121c0.002-0.013-0.005-0.021-0.002-0.035   c0.11-0.535,0.512-0.989,0.74-1.482c0.263-0.57,0.522-1.147,0.819-1.701c0.564-1.588,1.493-3.255,2.585-4.443   c0.015-0.016,0.031-0.02,0.046-0.033c0.027-0.038,0.052-0.077,0.079-0.115c0.004-0.006,0.01-0.008,0.015-0.014   C-22.274,363.677-31.432,343.375-31.432,320.902z" />
    <path
       fill="#6a6a6a" fill-opacity="1"
       id="path38"
       d="M29.886,404.63c0.022-0.848-0.159-1.888,0.061-2.723c-0.016-0.266-0.031-0.532-0.029-0.795c0-0.05,0.016-0.09,0.028-0.132   c-0.002-0.028-0.006-0.057-0.007-0.085c-0.003-0.054,0.002-0.104,0-0.158c-0.035-0.087-0.053-0.185-0.023-0.3   c0.02-0.079,0.02-0.159,0.024-0.238c0.002-0.055-0.003-0.111,0-0.166c-0.029-0.081-0.044-0.169-0.025-0.271   c0.005-0.052,0.01-0.104,0.015-0.155c-6.168-1.549-12.037-3.834-17.552-6.706c-0.32,0.473-0.781,0.896-1.125,1.338   c-0.003,0.004-0.005,0.009-0.008,0.013c-0.001,0.002-0.002,0.002-0.004,0.003c-0.047,0.062-0.095,0.122-0.137,0.185   c-0.526,0.783-0.935,1.628-1.547,2.352c-0.002,0.003-0.006,0.003-0.008,0.006c-0.009,0.027-0.009,0.053-0.023,0.08   c-0.626,1.21-0.981,2.479-1.382,3.764c-0.051,0.601-0.138,1.205-0.207,1.805c-0.077,0.664-0.03,1.322-0.074,1.986   c6.906,3.474,14.282,6.15,22.037,7.828c0.011-0.091,0.007-0.179,0.013-0.269c-0.004-0.025-0.016-0.045-0.016-0.073   c-0.005-0.3-0.003-0.591,0.021-0.886c-0.007-0.128-0.01-0.256-0.021-0.386c-0.037-0.461,0.058-0.914,0.021-1.375   c-0.006-0.072,0.006-0.133,0.023-0.188c0-0.005-0.003-0.008-0.003-0.013C29.938,407.591,29.846,406.109,29.886,404.63z" />
    <path
       fill="#6a6a6a" fill-opacity="1"
       id="path40"
       d="M49.753,227.402c-11.521,0-22.537,2.12-32.725,5.937c0.033,0.047,0.067,0.089,0.097,0.144   c0.072,0.135,0.15,0.271,0.226,0.406c0.069,0.059,0.131,0.124,0.185,0.198c0.184,0.218,0.256,0.417,0.402,0.646   c-0.071-0.054-0.048-0.024,0.069,0.089c0.07,0.072,0.14,0.145,0.209,0.218c0.162,0.185,0.316,0.376,0.438,0.589   c0.091,0.082,0.179,0.178,0.266,0.295c0.078,0.104,0.425,0.673,0.167,0.356c0.385,0.47,0.805,0.907,1.133,1.42   c0.284,0.265,0.511,0.55,0.766,0.88c-0.003-0.004,0.284,0.301,0.366,0.389c0.175,0.187,0.354,0.37,0.538,0.548   c0.039,0.037,0.065,0.077,0.097,0.115c1.366,1.243,2.766,2.398,4.17,3.607c7.466-2.277,15.382-3.521,23.596-3.521   c44.837,0,81.186,36.348,81.186,81.186c0,42.536-32.725,77.394-74.366,80.863c-0.007,0.032-0.004,0.072-0.017,0.1   c0.008,0.097,0.005,0.194-0.009,0.296c0.004,0.021,0.014,0.035,0.015,0.058c0.016,0.354,0.029,0.708,0.031,1.063   c0,0.036-0.017,0.06-0.022,0.091c0.001,0.013,0.007,0.021,0.007,0.034c0.004,0.344-0.002,0.682-0.027,1.019   c0.021,0.058,0.032,0.124,0.027,0.2c-0.008,0.115-0.02,0.229-0.03,0.343c0.003,0.022,0.014,0.039,0.015,0.063   c0.006,0.193-0.008,0.387-0.016,0.58c0.027,0.064,0.043,0.14,0.031,0.232c-0.016,0.126-0.022,0.247-0.025,0.372   c0.004,0.165-0.007,0.329,0.01,0.503c0.022,0.229,0.012,0.445-0.022,0.663c0.05,0.409,0.083,0.823,0.041,1.294   c-0.011,0.126-0.015,0.248-0.024,0.372c0.022,0.063,0.032,0.134,0.021,0.218c-0.062,0.472,0.042,0.934,0.029,1.406   c-0.01,0.408-0.038,0.813-0.092,1.219c-0.007,0.054-0.028,0.097-0.048,0.142c0,0.008,0,0.016,0,0.022   c0.113,0.638,0.007,1.281,0.097,1.916c0.003,0.008,0.009,0.013,0.012,0.021c0.014,0.049,0.017,0.094,0.019,0.14   c48.441-3.507,86.659-43.894,86.659-93.229C143.254,269.264,101.393,227.402,49.753,227.402z" />
  </g>
  <path
     id="path3374"
     d="m 91.756987,697.52366 -12.5,-16.4571 0,-108.54228 0,-108.54228 -20,0 c -29.688946,0 -28,3.49854 -28,-58 0,-47.33334 0.213334,-50.21334 4,-54 3.756718,-3.75672 6.666666,-4 47.844896,-4 l 43.844907,0 2.3884,-7.23696 c 1.43638,-4.35228 2.0474,-14.11808 1.53288,-24.5 -0.7104,-14.3344 -1.97074,-19.58658 -7.4291,-30.95922 l -6.57358,-13.6962 -22.450935,22.15064 c -12.348016,12.18286 -25.731002,23.52114 -29.739966,25.1962 -9.697114,4.0517 -23.01273,3.85536 -30.820934,-0.45446 -10.109012,-5.57978 -97.256468,-92.50102 -103.607946,-103.339 -3.120951,-5.3255 -7.989217,-15.64034 -10.81837,-22.92186 L -85.716674,178.982 -86.332096,42.501588 c -0.591918,-131.267914 -0.467826,-136.814082 3.249156,-145.216938 4.69585,-10.61574 14.378131,-18.37491 26.380021,-21.14035 5.520326,-1.27198 47.3484784,-2.06642 108.959906,-2.06948 93.005403,-0.005 100.559563,0.25329 108.000003,3.68727 4.4,2.03073 9.98204,5.84824 12.40454,8.48337 10.4333,11.34903 10.25318,8.72005 10.6749,155.79749 0.37938,132.30811 0.25774,137.31429 -3.59674,148.03525 -7.21458,20.06678 -12.42394,27.85332 -34.25118,51.19606 l -21.5757,23.0737 6.4968,12.31702 c 3.57326,6.77436 7.5187,16.17288 8.76766,20.8856 2.54502,9.60316 3.065,32.14556 0.99592,43.17478 l -1.36136,7.25664 15.87396,0 c 14.0069,0 16.38542,0.54444 20.22258,4.6289 4.22238,4.49452 4.34862,6.06216 4.34862,54 0,60.77512 1.66134,57.3711 -28,57.3711 l -20,0 0,14.30676 0,14.30674 -10,10.57354 c -6.76444,7.1524 -10,12.26876 -10,15.81296 0,3.5442 3.23556,8.66056 10,15.81296 5.5,5.81544 10,11.29324 10,12.17288 0,0.87964 -4.05,5.92912 -9,11.22106 -4.95,5.29196 -9,11.05498 -9,12.80674 0,4.94952 5.03482,13.40824 11.82144,19.86054 3.39822,3.2308 6.17856,7.64384 6.17856,9.80676 0,2.1629 -4.5,8.69066 -10,14.5061 -5.5,5.81544 -10,12.47208 -10,14.79256 0,6.11826 4.63702,14.03834 12.82936,21.91274 6.49934,6.24708 7.17064,7.90808 7.17064,17.74222 0,10.16738 -0.78076,11.90406 -12.4115,27.60768 -6.82632,9.21676 -12.90131,16.75748 -13.49999,16.75714 -0.59868,-3.6e-4 -6.713513,-7.40632 -13.588513,-16.45772 z m 3.018498,-129.06878 0.518498,-100.47288 -5.018498,0 -5.018498,0 0,99.66666 c 0,54.81668 0.631112,100.29778 1.402472,101.06914 0.77136,0.77136 2.79636,1.13416 4.5,0.80622 2.739422,-0.52732 3.157472,-12.21192 3.616026,-101.06914 z m 54.336345,-139.7426 c 3.42592,-4.35534 4.14516,-8.10722 4.14516,-21.62288 0,-21.79852 -2.76316,-25.1074 -20.9666,-25.1074 -11.89702,0 -13.3537,0.50438 -20.4221,7.07128 -9.4691,8.79728 -32.503845,20.37732 -45.111303,22.6784 -9.455664,1.7258 -9.5,1.70816 -9.5,-3.7808 0,-4.99292 0.84151,-5.6409 8.893972,-6.84844 9.575086,-1.43588 31.164892,-11.37166 35.153851,-16.17806 2.12182,-2.55664 -0.19306,-2.94238 -17.657773,-2.94238 -19.534432,0 -20.222612,0.1546 -24.468976,5.5 -3.940206,4.95992 -4.268184,7.16184 -3.340044,22.42378 1.50036,24.67126 0.277086,24.07622 49.495383,24.07622 l 39.63327,0 4.14516,-5.26972 z M 68.246283,247.17292 c 2.946768,-1.93078 4.828932,-4.03936 4.182586,-4.6857 -2.617002,-2.617 -24.334128,-4.10636 -34.870992,-2.39144 -9.92214,1.61488 -11.703012,1.37298 -15.13118,-2.05518 -3.847294,-3.8473 -3.831612,-3.90594 1.596124,-5.96956 10.424846,-3.96352 31.57142,-4.64248 45.188526,-1.45086 7.124898,1.66994 13.588788,2.64418 14.3642,2.16494 0.775412,-0.47924 2.464908,-5.58588 3.754438,-11.3481 5.6762,-25.36394 -12.05654,-47.45502 -38.092642,-47.45502 -15.83468,0 -27.346248,7.00478 -34.47889,20.98038 -10.7527436,21.06876 0.1537,48.0416 22.325678,55.21386 7.949596,2.57156 25.189652,0.91002 31.162152,-3.00332 z"
     fill="none"/>
  <path
     id="path3376"
     d="m 91.756987,697.52366 -12.5,-16.4571 0,-108.54228 0,-108.54228 -20,0 c -29.688946,0 -28,3.49854 -28,-58 0,-47.33334 0.213334,-50.21334 4,-54 3.756718,-3.75672 6.666666,-4 47.844896,-4 l 43.844907,0 2.3884,-7.23696 c 1.43638,-4.35228 2.0474,-14.11808 1.53288,-24.5 -0.7104,-14.3344 -1.97074,-19.58658 -7.4291,-30.95922 l -6.57358,-13.6962 -22.450935,22.15064 c -12.348016,12.18286 -25.731002,23.52114 -29.739966,25.1962 -9.697114,4.0517 -23.01273,3.85536 -30.820934,-0.45446 -10.109012,-5.57978 -97.256468,-92.50102 -103.607946,-103.339 -3.120951,-5.3255 -7.989217,-15.64034 -10.81837,-22.92186 L -85.716674,178.982 -86.332096,42.501588 c -0.591918,-131.267914 -0.467826,-136.814082 3.249156,-145.216938 4.69585,-10.61574 14.378131,-18.37491 26.380021,-21.14035 5.520326,-1.27198 47.3484784,-2.06642 108.959906,-2.06948 93.005403,-0.005 100.559563,0.25329 108.000003,3.68727 4.4,2.03073 9.98204,5.84824 12.40454,8.48337 10.4333,11.34903 10.25318,8.72005 10.6749,155.79749 0.37938,132.30811 0.25774,137.31429 -3.59674,148.03525 -7.21458,20.06678 -12.42394,27.85332 -34.25118,51.19606 l -21.5757,23.0737 6.4968,12.31702 c 3.57326,6.77436 7.5187,16.17288 8.76766,20.8856 2.54502,9.60316 3.065,32.14556 0.99592,43.17478 l -1.36136,7.25664 15.87396,0 c 14.0069,0 16.38542,0.54444 20.22258,4.6289 4.22238,4.49452 4.34862,6.06216 4.34862,54 0,60.77512 1.66134,57.3711 -28,57.3711 l -20,0 0,14.30676 0,14.30674 -10,10.57354 c -6.76444,7.1524 -10,12.26876 -10,15.81296 0,3.5442 3.23556,8.66056 10,15.81296 5.5,5.81544 10,11.29324 10,12.17288 0,0.87964 -4.05,5.92912 -9,11.22106 -4.95,5.29196 -9,11.05498 -9,12.80674 0,4.94952 5.03482,13.40824 11.82144,19.86054 3.39822,3.2308 6.17856,7.64384 6.17856,9.80676 0,2.1629 -4.5,8.69066 -10,14.5061 -5.5,5.81544 -10,12.47208 -10,14.79256 0,6.11826 4.63702,14.03834 12.82936,21.91274 6.49934,6.24708 7.17064,7.90808 7.17064,17.74222 0,10.16738 -0.78076,11.90406 -12.4115,27.60768 -6.82632,9.21676 -12.90131,16.75748 -13.49999,16.75714 -0.59868,-3.6e-4 -6.713513,-7.40632 -13.588513,-16.45772 z m 3.018498,-129.06878 0.518498,-100.47288 -5.018498,0 -5.018498,0 0,99.66666 c 0,54.81668 0.631112,100.29778 1.402472,101.06914 0.77136,0.77136 2.79636,1.13416 4.5,0.80622 2.739422,-0.52732 3.157472,-12.21192 3.616026,-101.06914 z m 54.336345,-139.7426 c 3.42592,-4.35534 4.14516,-8.10722 4.14516,-21.62288 0,-21.79852 -2.76316,-25.1074 -20.9666,-25.1074 -11.89702,0 -13.3537,0.50438 -20.4221,7.07128 -9.4691,8.79728 -32.503845,20.37732 -45.111303,22.6784 -9.455664,1.7258 -9.5,1.70816 -9.5,-3.7808 0,-4.99292 0.84151,-5.6409 8.893972,-6.84844 9.575086,-1.43588 31.164892,-11.37166 35.153851,-16.17806 2.12182,-2.55664 -0.19306,-2.94238 -17.657773,-2.94238 -19.534432,0 -20.222612,0.1546 -24.468976,5.5 -3.940206,4.95992 -4.268184,7.16184 -3.340044,22.42378 1.50036,24.67126 0.277086,24.07622 49.495383,24.07622 l 39.63327,0 4.14516,-5.26972 z M 68.246283,247.17292 c 2.946768,-1.93078 4.828932,-4.03936 4.182586,-4.6857 -2.617002,-2.617 -24.334128,-4.10636 -34.870992,-2.39144 -9.92214,1.61488 -11.703012,1.37298 -15.13118,-2.05518 -3.847294,-3.8473 -3.831612,-3.90594 1.596124,-5.96956 10.424846,-3.96352 31.57142,-4.64248 45.188526,-1.45086 7.124898,1.66994 13.588788,2.64418 14.3642,2.16494 0.775412,-0.47924 2.464908,-5.58588 3.754438,-11.3481 5.6762,-25.36394 -12.05654,-47.45502 -38.092642,-47.45502 -15.83468,0 -27.346248,7.00478 -34.47889,20.98038 -10.7527436,21.06876 0.1537,48.0416 22.325678,55.21386 7.949596,2.57156 25.189652,0.91002 31.162152,-3.00332 z"
    fill="none" />
</svg>